<?xml version="1.0" encoding="UTF-8"?>
<!DOCTYPE svg PUBLIC "-//W3C//DTD SVG 1.1//EN" "http://www.w3.org/Graphics/SVG/1.1/DTD/svg11.dtd">
<svg xmlns="http://www.w3.org/2000/svg" version="1.1" width="225px" height="225px" style="shape-rendering:geometricPrecision; text-rendering:geometricPrecision; image-rendering:optimizeQuality; fill-rule:evenodd; clip-rule:evenodd" xmlns:xlink="http://www.w3.org/1999/xlink">
<g><path style="opacity:0.634" fill="#7f7778" d="M 115.5,3.5 C 106.833,3.5 98.1667,3.5 89.5,3.5C 98.3809,1.05037 107.048,1.05037 115.5,3.5 Z"/></g>
<g><path style="opacity:0.004" fill="#cfd3d3" d="M 125.5,4.5 C 128.152,4.40953 130.485,5.07619 132.5,6.5C 129.848,6.59047 127.515,5.92381 125.5,4.5 Z"/></g>
<g><path style="opacity:0.859" fill="#686661" d="M 81.5,4.5 C 77.4979,6.60976 73.1646,7.9431 68.5,8.5C 72.403,6.1022 76.7363,4.76887 81.5,4.5 Z"/></g>
<g><path style="opacity:0.243" fill="#b8bab7" d="M 139.5,8.5 C 141.553,8.40206 143.22,9.06873 144.5,10.5C 142.447,10.5979 140.78,9.93127 139.5,8.5 Z"/></g>
<g><path style="opacity:1" fill="#fdcb99" d="M 141.5,12.5 C 154.852,16.8349 166.186,24.1682 175.5,34.5C 177.86,38.5607 179.694,42.894 181,47.5C 182.011,48.3366 183.178,48.67 184.5,48.5C 186.05,53.386 187.05,58.386 187.5,63.5C 188.5,63.5 189.5,63.5 190.5,63.5C 191.703,75.0029 191.703,86.5029 190.5,98C 190.167,99.1667 189.833,100.333 189.5,101.5C 188.914,101.291 188.414,100.957 188,100.5C 187.363,102.303 186.197,103.636 184.5,104.5C 184.709,105.086 185.043,105.586 185.5,106C 184.614,107.615 183.614,109.115 182.5,110.5C 174.382,113.123 166.048,114.457 157.5,114.5C 151.906,114.178 146.573,112.845 141.5,110.5C 140.692,108.577 140.192,106.577 140,104.5C 139.312,108.068 138.145,111.401 136.5,114.5C 135.833,114.5 135.5,114.833 135.5,115.5C 134.686,113.369 134.186,111.036 134,108.5C 133.727,110.101 133.227,111.601 132.5,113C 132.833,113.333 133.167,113.667 133.5,114C 129.886,116.833 128.219,116 128.5,111.5C 125.393,111.174 123.06,112.341 121.5,115C 117.367,115.994 113.2,116.828 109,117.5C 101.11,115.363 93.2766,113.363 85.5,111.5C 82.8333,109.833 80.1667,108.167 77.5,106.5C 76.8333,105.5 76.1667,104.5 75.5,103.5C 73.4297,101.036 71.5963,98.3695 70,95.5C 69.8595,97.2555 70.3595,98.9222 71.5,100.5C 69.4138,104.151 69.0804,107.817 70.5,111.5C 70.804,114.522 71.304,117.522 72,120.5C 72.2004,122.32 73.0337,123.653 74.5,124.5C 74.7376,126.404 75.7376,127.738 77.5,128.5C 80.1037,132.128 83.437,134.795 87.5,136.5C 83.4862,136.334 79.4862,136.501 75.5,137C 74.1667,137.667 74.1667,138.333 75.5,139C 81.4513,140.765 87.4513,140.932 93.5,139.5C 101.942,139.847 109.942,138.347 117.5,135C 119.788,131.593 121.955,128.093 124,124.5C 124.333,125.833 124.667,127.167 125,128.5C 125.498,125.183 125.665,121.85 125.5,118.5C 127.924,118.635 129.924,118.968 131.5,119.5C 130.215,122.021 129.548,124.687 129.5,127.5C 132.044,127.896 134.211,127.229 136,125.5C 136.684,126.784 136.517,127.951 135.5,129C 141.287,134.982 148.454,137.482 157,136.5C 159.167,136.333 161.333,136.167 163.5,136C 164.416,135.722 165.082,135.222 165.5,134.5C 166.671,133.655 168.005,132.989 169.5,132.5C 171.948,133.473 174.615,133.806 177.5,133.5C 177.785,137.038 176.118,138.871 172.5,139C 173.731,140.183 173.731,141.349 172.5,142.5C 171.914,142.291 171.414,141.957 171,141.5C 169.024,142.822 167.524,144.488 166.5,146.5C 163.266,145.994 162.599,144.328 164.5,141.5C 161.833,141.5 159.167,141.5 156.5,141.5C 156.36,143.124 157.027,144.29 158.5,145C 157.667,145.167 156.833,145.333 156,145.5C 152.019,143.698 147.852,142.698 143.5,142.5C 143.5,141.167 143.5,139.833 143.5,138.5C 142.127,138.657 140.793,138.49 139.5,138C 141.595,137.444 141.762,136.944 140,136.5C 138.27,137.649 136.604,137.649 135,136.5C 134.56,138.076 133.727,139.41 132.5,140.5C 132.709,141.086 133.043,141.586 133.5,142C 132.263,142.232 131.263,142.732 130.5,143.5C 129.448,143.351 128.448,143.517 127.5,144C 126.262,144.69 126.262,145.19 127.5,145.5C 126.374,146.858 126.374,148.192 127.5,149.5C 132.61,148.388 137.776,148.388 143,149.5C 143.483,150.448 143.649,151.448 143.5,152.5C 127.827,153.806 112.16,153.639 96.5,152C 93.0125,149.705 89.3458,149.205 85.5,150.5C 79.2274,147.364 72.8941,144.197 66.5,141C 61.2374,137.119 55.7374,133.619 50,130.5C 45.8728,133.277 41.7061,136.11 37.5,139C 31.3573,141.345 25.0239,142.011 18.5,141C 14.1118,138.477 9.77845,135.977 5.5,133.5C 4.76589,132.292 4.43255,130.959 4.5,129.5C 5.20829,125.215 5.70829,120.882 6,116.5C 8.57688,112.729 11.5769,109.395 15,106.5C 15.3333,106.833 15.6667,107.167 16,107.5C 23.7704,104.336 31.6037,104.003 39.5,106.5C 41.9752,105.313 44.3086,105.647 46.5,107.5C 47.6956,107.154 47.6956,106.654 46.5,106C 44.3496,104.589 42.0163,103.755 39.5,103.5C 34.4849,101.202 31.8182,97.2021 31.5,91.5C 32.162,89.6965 32.4954,87.6965 32.5,85.5C 29.9336,73.8304 29.9336,62.1637 32.5,50.5C 36.5341,43.6267 40.3674,36.6267 44,29.5C 48.2011,24.1814 53.2011,20.848 59,19.5C 60.2088,17.184 61.7088,15.184 63.5,13.5C 68.461,14.3134 72.7944,13.1467 76.5,10C 85.5809,9.40658 94.5809,8.23991 103.5,6.5C 116.318,8.2039 128.985,10.2039 141.5,12.5 Z"/></g>
<g><path style="opacity:1" fill="#ca6635" d="M 154.5,42.5 C 155.167,44.5 155.833,46.5 156.5,48.5C 156.5,53.5 156.5,58.5 156.5,63.5C 155.081,66.1004 153.415,68.6004 151.5,71C 148.5,73.6667 145.5,76.3333 142.5,79C 140.598,80.3011 138.598,80.9678 136.5,81C 138.041,79.4207 139.208,77.5873 140,75.5C 140.667,71.5 140.667,67.5 140,63.5C 138.318,70.6924 134.151,76.0257 127.5,79.5C 126.341,76.6517 125.008,73.9851 123.5,71.5C 123.5,69.8333 123.5,68.1667 123.5,66.5C 123.662,64.4727 123.495,62.4727 123,60.5C 122.667,60.8333 122.333,61.1667 122,61.5C 120.974,58.7613 119.474,56.428 117.5,54.5C 106.287,42.198 108.62,33.3646 124.5,28C 133.825,27.2182 142.159,29.8849 149.5,36C 151.79,37.7772 153.457,39.9438 154.5,42.5 Z"/></g>
<g><path style="opacity:0.94" fill="#312722" d="M 89.5,3.5 C 98.1667,3.5 106.833,3.5 115.5,3.5C 118.939,3.25293 122.272,3.58627 125.5,4.5C 127.515,5.92381 129.848,6.59047 132.5,6.5C 134.965,6.76697 137.299,7.43363 139.5,8.5C 140.78,9.93127 142.447,10.5979 144.5,10.5C 167.362,18.5276 183.195,33.8609 192,56.5C 192.977,58.74 193.477,61.0733 193.5,63.5C 192.732,62.7375 192.232,61.7375 192,60.5C 191.536,61.0944 191.369,61.7611 191.5,62.5C 188.307,51.9666 182.974,42.6333 175.5,34.5C 166.186,24.1682 154.852,16.8349 141.5,12.5C 129.191,6.97368 116.191,4.64035 102.5,5.5C 88.7115,4.8684 75.7115,7.53507 63.5,13.5C 44.3712,22.1347 32.8712,36.8014 29,57.5C 27.8707,69.0069 28.7041,80.3402 31.5,91.5C 31.8182,97.2021 34.4849,101.202 39.5,103.5C 32.5226,102.543 25.5226,102.377 18.5,103C 6.0191,107.798 1.35243,116.631 4.5,129.5C 4.43255,130.959 4.76589,132.292 5.5,133.5C 9.1121,141.254 15.2788,145.254 24,145.5C 34.1869,144.457 43.5203,141.123 52,135.5C 61.5242,141.553 71.3575,146.886 81.5,151.5C 80.4937,151.938 80.4937,152.604 81.5,153.5C 71.0337,149.684 61.2004,144.684 52,138.5C 41.833,145.167 30.6663,148 18.5,147C 9.26695,144.601 3.60029,138.767 1.5,129.5C 1.41262,124.463 1.74595,119.463 2.5,114.5C 8.04637,102.723 17.3797,97.7232 30.5,99.5C 23.9861,80.4018 24.1528,61.4018 31,42.5C 38.621,25.709 51.121,14.3757 68.5,8.5C 73.1646,7.9431 77.4979,6.60976 81.5,4.5C 84.0545,3.61197 86.7212,3.27863 89.5,3.5 Z"/></g>
<g><path style="opacity:1" fill="#eccba5" d="M 141.5,12.5 C 128.985,10.2039 116.318,8.2039 103.5,6.5C 94.5809,8.23991 85.5809,9.40658 76.5,10C 72.7944,13.1467 68.461,14.3134 63.5,13.5C 75.7115,7.53507 88.7115,4.8684 102.5,5.5C 116.191,4.64035 129.191,6.97368 141.5,12.5 Z"/></g>
<g><path style="opacity:1" fill="#e9c7a2" d="M 63.5,13.5 C 61.7088,15.184 60.2088,17.184 59,19.5C 53.2011,20.848 48.2011,24.1814 44,29.5C 40.3674,36.6267 36.5341,43.6267 32.5,50.5C 29.9336,62.1637 29.9336,73.8304 32.5,85.5C 32.4954,87.6965 32.162,89.6965 31.5,91.5C 28.7041,80.3402 27.8707,69.0069 29,57.5C 32.8712,36.8014 44.3712,22.1347 63.5,13.5 Z"/></g>
<g><path style="opacity:1" fill="#b46547" d="M 156.5,48.5 C 157.991,51.1864 158.657,54.1864 158.5,57.5C 158.495,59.6965 158.162,61.6965 157.5,63.5C 157.167,63.5 156.833,63.5 156.5,63.5C 156.5,58.5 156.5,53.5 156.5,48.5 Z"/></g>
<g><path style="opacity:1" fill="#7d462a" d="M 117.5,54.5 C 119.474,56.428 120.974,58.7613 122,61.5C 122.333,61.1667 122.667,60.8333 123,60.5C 123.495,62.4727 123.662,64.4727 123.5,66.5C 122.833,65.5 122.167,64.5 121.5,63.5C 119.796,60.7442 118.463,57.7442 117.5,54.5 Z"/></g>
<g><path style="opacity:1" fill="#281006" d="M 154.5,42.5 C 162.005,52.2907 162.505,62.6241 156,73.5C 153.817,75.9071 151.65,78.2404 149.5,80.5C 145.385,83.8909 140.718,86.2243 135.5,87.5C 135.062,87.5654 134.728,87.3988 134.5,87C 135.416,86.7216 136.082,86.2216 136.5,85.5C 147.613,82.0548 154.613,74.7215 157.5,63.5C 158.162,61.6965 158.495,59.6965 158.5,57.5C 158.657,54.1864 157.991,51.1864 156.5,48.5C 155.833,46.5 155.167,44.5 154.5,42.5 Z"/></g>
<g><path style="opacity:1" fill="#8a310e" d="M 156.5,63.5 C 156.833,63.5 157.167,63.5 157.5,63.5C 154.613,74.7215 147.613,82.0548 136.5,85.5C 134.406,86.2422 132.239,86.9089 130,87.5C 128.833,87.1667 127.667,86.8333 126.5,86.5C 127.981,85.5197 129.315,84.353 130.5,83C 128.544,83.2218 126.71,84.0552 125,85.5C 124.292,84.6195 123.458,83.9528 122.5,83.5C 123.36,79.5662 123.693,75.5662 123.5,71.5C 125.008,73.9851 126.341,76.6517 127.5,79.5C 134.151,76.0257 138.318,70.6924 140,63.5C 140.667,67.5 140.667,71.5 140,75.5C 139.208,77.5873 138.041,79.4207 136.5,81C 138.598,80.9678 140.598,80.3011 142.5,79C 145.5,76.3333 148.5,73.6667 151.5,71C 153.415,68.6004 155.081,66.1004 156.5,63.5 Z"/></g>
<g><path style="opacity:1" fill="#290b04" d="M 121.5,63.5 C 122.167,64.5 122.833,65.5 123.5,66.5C 123.5,68.1667 123.5,69.8333 123.5,71.5C 123.693,75.5662 123.36,79.5662 122.5,83.5C 122.229,85.3117 121.562,86.9783 120.5,88.5C 119.893,88.3764 119.56,88.0431 119.5,87.5C 122.701,79.7597 123.367,71.7597 121.5,63.5 Z"/></g>
<g><path style="opacity:1" fill="#d39e6a" d="M 149.5,80.5 C 149.489,82.0174 148.823,83.1841 147.5,84C 140.345,89.8926 132.345,91.7259 123.5,89.5C 127.764,89.6558 131.764,88.9891 135.5,87.5C 140.718,86.2243 145.385,83.8909 149.5,80.5 Z"/></g>
<g><path style="opacity:1" fill="#522210" d="M 136.5,85.5 C 136.082,86.2216 135.416,86.7216 134.5,87C 134.728,87.3988 135.062,87.5654 135.5,87.5C 131.764,88.9891 127.764,89.6558 123.5,89.5C 121.712,89.7852 120.045,89.4519 118.5,88.5C 118.624,87.8933 118.957,87.56 119.5,87.5C 119.56,88.0431 119.893,88.3764 120.5,88.5C 121.562,86.9783 122.229,85.3117 122.5,83.5C 123.458,83.9528 124.292,84.6195 125,85.5C 126.71,84.0552 128.544,83.2218 130.5,83C 129.315,84.353 127.981,85.5197 126.5,86.5C 127.667,86.8333 128.833,87.1667 130,87.5C 132.239,86.9089 134.406,86.2422 136.5,85.5 Z"/></g>
<g><path style="opacity:0.004" fill="#cfccc5" d="M 207.5,100.5 C 209.898,100.259 211.898,100.926 213.5,102.5C 211.214,102.405 209.214,101.738 207.5,100.5 Z"/></g>
<g><path style="opacity:0.329" fill="#9a8c8e" d="M 213.5,102.5 C 215.754,103.124 217.421,104.457 218.5,106.5C 216.205,105.864 214.539,104.531 213.5,102.5 Z"/></g>
<g><path style="opacity:1" fill="#cc996c" d="M 75.5,103.5 C 71.8297,104.828 70.163,107.495 70.5,111.5C 69.0804,107.817 69.4138,104.151 71.5,100.5C 70.3595,98.9222 69.8595,97.2555 70,95.5C 71.5963,98.3695 73.4297,101.036 75.5,103.5 Z"/></g>
<g><path style="opacity:1" fill="#f8f9f7" d="M 77.5,106.5 C 83.9252,113.718 91.9252,118.384 101.5,120.5C 106.214,120.173 110.88,120.507 115.5,121.5C 116.671,123.169 118.004,124.669 119.5,126C 119.011,127.138 118.678,128.305 118.5,129.5C 104.529,139.142 90.8623,138.808 77.5,128.5C 77.2624,126.596 76.2624,125.262 74.5,124.5C 72.1751,119.234 72.0085,113.901 74,108.5C 74.8159,107.177 75.9826,106.511 77.5,106.5 Z"/></g>
<g><path style="opacity:1" fill="#fcca97" d="M 218.5,125.5 C 211.604,134.13 202.604,136.964 191.5,134C 188.888,133.361 186.554,132.194 184.5,130.5C 184.167,130.833 183.833,131.167 183.5,131.5C 185.419,132.612 187.086,133.946 188.5,135.5C 182.848,135.038 181.015,132.038 183,126.5C 183.278,125.584 183.778,124.918 184.5,124.5C 188.643,120.551 193.476,117.551 199,115.5C 202.407,117.239 204.74,119.906 206,123.5C 206.464,122.906 206.631,122.239 206.5,121.5C 206.669,114.062 203.002,111.062 195.5,112.5C 191.26,109.707 191.593,107.54 196.5,106C 200.5,105.333 204.5,105.333 208.5,106C 216.901,109.088 220.235,115.588 218.5,125.5 Z"/></g>
<g><path style="opacity:1" fill="#5e4931" d="M 157.5,114.5 C 157.5,114.833 157.5,115.167 157.5,115.5C 151.501,115.584 145.835,114.25 140.5,111.5C 139.148,112.524 137.815,113.524 136.5,114.5C 138.145,111.401 139.312,108.068 140,104.5C 140.192,106.577 140.692,108.577 141.5,110.5C 146.573,112.845 151.906,114.178 157.5,114.5 Z"/></g>
<g><path style="opacity:1" fill="#e5c39f" d="M 39.5,103.5 C 42.0163,103.755 44.3496,104.589 46.5,106C 47.6956,106.654 47.6956,107.154 46.5,107.5C 44.3086,105.647 41.9752,105.313 39.5,106.5C 31.6037,104.003 23.7704,104.336 16,107.5C 15.6667,107.167 15.3333,106.833 15,106.5C 11.5769,109.395 8.57688,112.729 6,116.5C 5.70829,120.882 5.20829,125.215 4.5,129.5C 1.35243,116.631 6.0191,107.798 18.5,103C 25.5226,102.377 32.5226,102.543 39.5,103.5 Z"/></g>
<g><path style="opacity:1" fill="#5a3419" d="M 26.5,115.5 C 22.2473,114.807 18.5807,115.807 15.5,118.5C 18.0153,113.288 21.682,112.288 26.5,115.5 Z"/></g>
<g><path style="opacity:1" fill="#23140b" d="M 75.5,103.5 C 76.1667,104.5 76.8333,105.5 77.5,106.5C 75.9826,106.511 74.8159,107.177 74,108.5C 72.0085,113.901 72.1751,119.234 74.5,124.5C 73.0337,123.653 72.2004,122.32 72,120.5C 71.304,117.522 70.804,114.522 70.5,111.5C 70.163,107.495 71.8297,104.828 75.5,103.5 Z"/></g>
<g><path style="opacity:1" fill="#201510" d="M 182.5,110.5 C 182.625,117.242 180.292,122.908 175.5,127.5C 178.568,122.898 179.568,117.898 178.5,112.5C 175.252,113.645 171.919,114.479 168.5,115C 166.798,119.126 163.798,120.46 159.5,119C 158.177,118.184 157.511,117.017 157.5,115.5C 157.5,115.167 157.5,114.833 157.5,114.5C 166.048,114.457 174.382,113.123 182.5,110.5 Z"/></g>
<g><path style="opacity:1" fill="#4a382a" d="M 77.5,106.5 C 80.1667,108.167 82.8333,109.833 85.5,111.5C 87.428,113.474 89.7613,114.974 92.5,116C 96.2541,117.309 99.9207,118.475 103.5,119.5C 102.508,119.328 101.842,119.662 101.5,120.5C 91.9252,118.384 83.9252,113.718 77.5,106.5 Z"/></g>
<g><path style="opacity:1" fill="#f6f7f5" d="M 157.5,115.5 C 157.511,117.017 158.177,118.184 159.5,119C 163.798,120.46 166.798,119.126 168.5,115C 171.919,114.479 175.252,113.645 178.5,112.5C 179.568,117.898 178.568,122.898 175.5,127.5C 161.525,136.807 149.192,135.14 138.5,122.5C 138.142,119.733 137.475,117.067 136.5,114.5C 137.815,113.524 139.148,112.524 140.5,111.5C 145.835,114.25 151.501,115.584 157.5,115.5 Z"/></g>
<g><path style="opacity:1" fill="#855331" d="M 26.5,115.5 C 28.674,115.75 30.3406,116.75 31.5,118.5C 29.0107,118.759 27.344,117.759 26.5,115.5 Z"/></g>
<g><path style="opacity:1" fill="#e99f58" d="M 26.5,115.5 C 27.344,117.759 29.0107,118.759 31.5,118.5C 32.1667,119.5 32.8333,120.5 33.5,121.5C 33.2172,122.289 32.7172,122.956 32,123.5C 28.98,121.8 25.98,120.134 23,118.5C 20.2096,119.476 17.7096,120.809 15.5,122.5C 15.5,121.167 15.5,119.833 15.5,118.5C 18.5807,115.807 22.2473,114.807 26.5,115.5 Z"/></g>
<g><path style="opacity:1" fill="#20170e" d="M 118.5,129.5 C 118.678,128.305 119.011,127.138 119.5,126C 118.004,124.669 116.671,123.169 115.5,121.5C 110.88,120.507 106.214,120.173 101.5,120.5C 101.842,119.662 102.508,119.328 103.5,119.5C 110.07,119.713 116.403,118.879 122.5,117C 121.712,120.076 121.212,123.242 121,126.5C 120.623,127.942 119.79,128.942 118.5,129.5 Z"/></g>
<g><path style="opacity:1" fill="#372721" d="M 193.5,63.5 C 194.925,66.9032 195.758,70.5698 196,74.5C 196.632,83.1856 196.466,91.8523 195.5,100.5C 199.565,99.801 203.565,99.801 207.5,100.5C 209.214,101.738 211.214,102.405 213.5,102.5C 214.539,104.531 216.205,105.864 218.5,106.5C 219.925,107.922 220.925,109.589 221.5,111.5C 222.2,115.798 222.533,120.131 222.5,124.5C 221.833,121.833 221.167,119.167 220.5,116.5C 219.939,111.213 217.272,107.38 212.5,105C 205.715,102.87 199.049,103.036 192.5,105.5C 190.374,108.919 188.374,112.419 186.5,116C 187.094,116.464 187.761,116.631 188.5,116.5C 187.542,117.962 186.376,119.295 185,120.5C 184.51,121.793 184.343,123.127 184.5,124.5C 183.778,124.918 183.278,125.584 183,126.5C 181.015,132.038 182.848,135.038 188.5,135.5C 194.647,137.312 200.98,137.979 207.5,137.5C 207.5,137.833 207.5,138.167 207.5,138.5C 198.977,140.198 190.644,139.198 182.5,135.5C 182.44,134.957 182.107,134.624 181.5,134.5C 180.571,135.689 180.238,137.022 180.5,138.5C 179.549,137.081 179.216,135.415 179.5,133.5C 181.373,122.753 185.207,112.753 191,103.5C 194.14,89.8659 194.307,76.1992 191.5,62.5C 191.369,61.7611 191.536,61.0944 192,60.5C 192.232,61.7375 192.732,62.7375 193.5,63.5 Z"/></g>
<g><path style="opacity:1" fill="#d8a16b" d="M 206.5,121.5 C 206.631,122.239 206.464,122.906 206,123.5C 204.74,119.906 202.407,117.239 199,115.5C 193.476,117.551 188.643,120.551 184.5,124.5C 184.343,123.127 184.51,121.793 185,120.5C 186.376,119.295 187.542,117.962 188.5,116.5C 190.027,116.573 191.027,115.906 191.5,114.5C 195.87,112.843 200.036,113.176 204,115.5C 204.845,117.611 205.678,119.611 206.5,121.5 Z"/></g>
<g><path style="opacity:1" fill="#5a2a0f" d="M 195.5,112.5 C 203.002,111.062 206.669,114.062 206.5,121.5C 205.678,119.611 204.845,117.611 204,115.5C 200.036,113.176 195.87,112.843 191.5,114.5C 192.514,113.326 193.847,112.66 195.5,112.5 Z"/></g>
<g><path style="opacity:1" fill="#6d5540" d="M 136.5,114.5 C 137.475,117.067 138.142,119.733 138.5,122.5C 136.707,120.574 135.707,118.241 135.5,115.5C 135.5,114.833 135.833,114.5 136.5,114.5 Z"/></g>
<g><path style="opacity:0.573" fill="#928e8a" d="M 221.5,111.5 C 222.651,113.779 223.651,116.112 224.5,118.5C 224.5,119.167 224.5,119.833 224.5,120.5C 223.833,122.167 223.167,123.833 222.5,125.5C 222.5,125.167 222.5,124.833 222.5,124.5C 222.533,120.131 222.2,115.798 221.5,111.5 Z"/></g>
<g><path style="opacity:1" fill="#f1c99e" d="M 135.5,115.5 C 135.707,118.241 136.707,120.574 138.5,122.5C 140.257,127.425 143.59,130.925 148.5,133C 154.072,134.351 159.738,134.851 165.5,134.5C 165.082,135.222 164.416,135.722 163.5,136C 161.333,136.167 159.167,136.333 157,136.5C 148.454,137.482 141.287,134.982 135.5,129C 136.517,127.951 136.684,126.784 136,125.5C 134.211,127.229 132.044,127.896 129.5,127.5C 129.548,124.687 130.215,122.021 131.5,119.5C 129.924,118.968 127.924,118.635 125.5,118.5C 125.665,121.85 125.498,125.183 125,128.5C 124.667,127.167 124.333,125.833 124,124.5C 121.955,128.093 119.788,131.593 117.5,135C 109.942,138.347 101.942,139.847 93.5,139.5C 92.1667,138.833 90.8333,138.167 89.5,137.5C 98.6493,138.484 107.316,136.984 115.5,133C 116.71,131.961 117.71,130.794 118.5,129.5C 119.79,128.942 120.623,127.942 121,126.5C 121.212,123.242 121.712,120.076 122.5,117C 116.403,118.879 110.07,119.713 103.5,119.5C 99.9207,118.475 96.2541,117.309 92.5,116C 89.7613,114.974 87.428,113.474 85.5,111.5C 93.2766,113.363 101.11,115.363 109,117.5C 113.2,116.828 117.367,115.994 121.5,115C 123.06,112.341 125.393,111.174 128.5,111.5C 128.219,116 129.886,116.833 133.5,114C 133.167,113.667 132.833,113.333 132.5,113C 133.227,111.601 133.727,110.101 134,108.5C 134.186,111.036 134.686,113.369 135.5,115.5 Z"/></g>
<g><path style="opacity:1" fill="#e8c6a2" d="M 220.5,116.5 C 220.736,119.609 220.403,122.609 219.5,125.5C 219.167,125.5 218.833,125.5 218.5,125.5C 220.235,115.588 216.901,109.088 208.5,106C 204.5,105.333 200.5,105.333 196.5,106C 191.593,107.54 191.26,109.707 195.5,112.5C 193.847,112.66 192.514,113.326 191.5,114.5C 189.973,114.427 188.973,115.094 188.5,116.5C 187.761,116.631 187.094,116.464 186.5,116C 188.374,112.419 190.374,108.919 192.5,105.5C 199.049,103.036 205.715,102.87 212.5,105C 217.272,107.38 219.939,111.213 220.5,116.5 Z"/></g>
<g><path style="opacity:1" fill="#4c230e" d="M 191.5,114.5 C 191.027,115.906 190.027,116.573 188.5,116.5C 188.973,115.094 189.973,114.427 191.5,114.5 Z"/></g>
<g><path style="opacity:0.941" fill="#483830" d="M 220.5,116.5 C 221.167,119.167 221.833,121.833 222.5,124.5C 222.5,124.833 222.5,125.167 222.5,125.5C 220.306,133.025 215.306,137.358 207.5,138.5C 207.5,138.167 207.5,137.833 207.5,137.5C 213.16,135.173 217.16,131.173 219.5,125.5C 220.403,122.609 220.736,119.609 220.5,116.5 Z"/></g>
<g><path style="opacity:0.267" fill="#bbb9b4" d="M 2.5,114.5 C 1.74595,119.463 1.41262,124.463 1.5,129.5C 0.837982,127.696 0.504648,125.696 0.5,123.5C 0.342524,120.186 1.00919,117.186 2.5,114.5 Z"/></g>
<g><path style="opacity:1" fill="#512b15" d="M 31.5,118.5 C 35.8422,120.328 39.5088,123.161 42.5,127C 39.1823,126.183 35.849,126.349 32.5,127.5C 34.0261,125.87 36.0261,125.037 38.5,125C 37.2107,123.198 35.5441,122.031 33.5,121.5C 32.8333,120.5 32.1667,119.5 31.5,118.5 Z"/></g>
<g><path style="opacity:1" fill="#3f3428" d="M 74.5,124.5 C 76.2624,125.262 77.2624,126.596 77.5,128.5C 75.7376,127.738 74.7376,126.404 74.5,124.5 Z"/></g>
<g><path style="opacity:1" fill="#835c34" d="M 15.5,118.5 C 15.5,119.833 15.5,121.167 15.5,122.5C 15.6621,124.527 15.4955,126.527 15,128.5C 12.9557,125.004 13.1224,121.67 15.5,118.5 Z"/></g>
<g><path style="opacity:1" fill="#41301e" d="M 138.5,122.5 C 149.192,135.14 161.525,136.807 175.5,127.5C 174.155,129.836 172.155,131.503 169.5,132.5C 168.005,132.989 166.671,133.655 165.5,134.5C 159.738,134.851 154.072,134.351 148.5,133C 143.59,130.925 140.257,127.425 138.5,122.5 Z"/></g>
<g><path style="opacity:1" fill="#ecc89f" d="M 175.5,34.5 C 182.974,42.6333 188.307,51.9666 191.5,62.5C 194.307,76.1992 194.14,89.8659 191,103.5C 185.207,112.753 181.373,122.753 179.5,133.5C 178.878,138.224 176.544,142.057 172.5,145C 166.547,148.919 160.214,151.752 153.5,153.5C 151.436,153.687 149.436,154.187 147.5,155C 135.505,155.5 123.505,155.667 111.5,155.5C 122.34,154.743 133.34,154.076 144.5,153.5C 152.277,152.158 159.61,149.825 166.5,146.5C 167.524,144.488 169.024,142.822 171,141.5C 171.414,141.957 171.914,142.291 172.5,142.5C 173.731,141.349 173.731,140.183 172.5,139C 176.118,138.871 177.785,137.038 177.5,133.5C 174.615,133.806 171.948,133.473 169.5,132.5C 172.155,131.503 174.155,129.836 175.5,127.5C 180.292,122.908 182.625,117.242 182.5,110.5C 183.614,109.115 184.614,107.615 185.5,106C 185.043,105.586 184.709,105.086 184.5,104.5C 186.197,103.636 187.363,102.303 188,100.5C 188.414,100.957 188.914,101.291 189.5,101.5C 189.833,100.333 190.167,99.1667 190.5,98C 191.703,86.5029 191.703,75.0029 190.5,63.5C 189.5,63.5 188.5,63.5 187.5,63.5C 187.05,58.386 186.05,53.386 184.5,48.5C 183.178,48.67 182.011,48.3366 181,47.5C 179.694,42.894 177.86,38.5607 175.5,34.5 Z"/></g>
<g><path style="opacity:1" fill="#563519" d="M 32.5,127.5 C 32.6602,129.199 32.4935,130.866 32,132.5C 29.9353,130.549 30.102,128.882 32.5,127.5 Z"/></g>
<g><path style="opacity:1" fill="#d39a64" d="M 218.5,125.5 C 218.833,125.5 219.167,125.5 219.5,125.5C 217.16,131.173 213.16,135.173 207.5,137.5C 200.98,137.979 194.647,137.312 188.5,135.5C 187.086,133.946 185.419,132.612 183.5,131.5C 183.833,131.167 184.167,130.833 184.5,130.5C 186.554,132.194 188.888,133.361 191.5,134C 202.604,136.964 211.604,134.13 218.5,125.5 Z"/></g>
<g><path style="opacity:1" fill="#493324" d="M 77.5,128.5 C 90.8623,138.808 104.529,139.142 118.5,129.5C 117.71,130.794 116.71,131.961 115.5,133C 107.316,136.984 98.6493,138.484 89.5,137.5C 89.1583,136.662 88.4916,136.328 87.5,136.5C 83.437,134.795 80.1037,132.128 77.5,128.5 Z"/></g>
<g><path style="opacity:0.161" fill="#a79e9a" d="M 182.5,135.5 C 181.833,136.5 181.167,137.5 180.5,138.5C 180.238,137.022 180.571,135.689 181.5,134.5C 182.107,134.624 182.44,134.957 182.5,135.5 Z"/></g>
<g><path style="opacity:1" fill="#e19d59" d="M 87.5,136.5 C 88.4916,136.328 89.1583,136.662 89.5,137.5C 90.8333,138.167 92.1667,138.833 93.5,139.5C 87.4513,140.932 81.4513,140.765 75.5,139C 74.1667,138.333 74.1667,137.667 75.5,137C 79.4862,136.501 83.4862,136.334 87.5,136.5 Z"/></g>
<g><path style="opacity:1" fill="#d99859" d="M 85.5,150.5 C 84.5084,150.328 83.8417,150.662 83.5,151.5C 82.8333,151.5 82.1667,151.5 81.5,151.5C 71.3575,146.886 61.5242,141.553 52,135.5C 43.5203,141.123 34.1869,144.457 24,145.5C 15.2788,145.254 9.1121,141.254 5.5,133.5C 9.77845,135.977 14.1118,138.477 18.5,141C 25.0239,142.011 31.3573,141.345 37.5,139C 41.7061,136.11 45.8728,133.277 50,130.5C 55.7374,133.619 61.2374,137.119 66.5,141C 72.8941,144.197 79.2274,147.364 85.5,150.5 Z"/></g>
<g><path style="opacity:1" fill="#4f331b" d="M 130.5,143.5 C 131.594,144.582 132.927,145.248 134.5,145.5C 137.248,143.709 140.248,143.209 143.5,144C 140.068,144.116 137.068,145.283 134.5,147.5C 132.668,146.752 131.001,145.752 129.5,144.5C 128.817,144.863 128.15,145.196 127.5,145.5C 126.262,145.19 126.262,144.69 127.5,144C 128.448,143.517 129.448,143.351 130.5,143.5 Z"/></g>
<g><path style="opacity:1" fill="#f4c99a" d="M 166.5,146.5 C 159.61,149.825 152.277,152.158 144.5,153.5C 133.34,154.076 122.34,154.743 111.5,155.5C 101.956,155.322 92.623,153.989 83.5,151.5C 83.8417,150.662 84.5084,150.328 85.5,150.5C 89.3458,149.205 93.0125,149.705 96.5,152C 112.16,153.639 127.827,153.806 143.5,152.5C 143.649,151.448 143.483,150.448 143,149.5C 137.776,148.388 132.61,148.388 127.5,149.5C 126.374,148.192 126.374,146.858 127.5,145.5C 128.15,145.196 128.817,144.863 129.5,144.5C 131.001,145.752 132.668,146.752 134.5,147.5C 137.068,145.283 140.068,144.116 143.5,144C 140.248,143.209 137.248,143.709 134.5,145.5C 132.927,145.248 131.594,144.582 130.5,143.5C 131.263,142.732 132.263,142.232 133.5,142C 133.043,141.586 132.709,141.086 132.5,140.5C 133.727,139.41 134.56,138.076 135,136.5C 136.604,137.649 138.27,137.649 140,136.5C 141.762,136.944 141.595,137.444 139.5,138C 140.793,138.49 142.127,138.657 143.5,138.5C 143.5,139.833 143.5,141.167 143.5,142.5C 147.852,142.698 152.019,143.698 156,145.5C 156.833,145.333 157.667,145.167 158.5,145C 157.027,144.29 156.36,143.124 156.5,141.5C 159.167,141.5 161.833,141.5 164.5,141.5C 162.599,144.328 163.266,145.994 166.5,146.5 Z"/></g>
<g><path style="opacity:0.267" fill="#8e867e" d="M 82.5,153.5 C 85.1522,153.41 87.4855,154.076 89.5,155.5C 86.8478,155.59 84.5145,154.924 82.5,153.5 Z"/></g>
<g><path style="opacity:1" fill="#2c2928" d="M 179.5,133.5 C 179.216,135.415 179.549,137.081 180.5,138.5C 179.391,140.554 178.391,142.721 177.5,145C 179.007,148.021 180.007,151.188 180.5,154.5C 178.712,154.215 177.045,154.548 175.5,155.5C 177.707,156.635 180.04,157.301 182.5,157.5C 183.043,157.56 183.376,157.893 183.5,158.5C 181.686,163.283 179.686,167.95 177.5,172.5C 172.482,169.141 167.482,165.807 162.5,162.5C 161.71,161.599 160.71,160.932 159.5,160.5C 159.5,159.833 159.5,159.167 159.5,158.5C 164.975,162.074 170.641,165.407 176.5,168.5C 177.362,167.234 178.029,165.901 178.5,164.5C 179.15,162.565 179.483,160.565 179.5,158.5C 174.1,157.816 168.767,156.816 163.5,155.5C 161.735,154.539 159.735,154.205 157.5,154.5C 156.432,153.566 155.099,153.232 153.5,153.5C 160.214,151.752 166.547,148.919 172.5,145C 176.544,142.057 178.878,138.224 179.5,133.5 Z"/></g>
<g><path style="opacity:1" fill="#d8dada" d="M 173.5,146.5 C 176.451,147.809 177.784,150.143 177.5,153.5C 172.437,154.926 167.437,154.759 162.5,153C 166.198,150.821 169.864,148.654 173.5,146.5 Z"/></g>
<g><path style="opacity:1" fill="#1f1915" d="M 81.5,151.5 C 82.1667,151.5 82.8333,151.5 83.5,151.5C 92.623,153.989 101.956,155.322 111.5,155.5C 123.505,155.667 135.505,155.5 147.5,155C 149.436,154.187 151.436,153.687 153.5,153.5C 155.099,153.232 156.432,153.566 157.5,154.5C 157.66,156.153 158.326,157.486 159.5,158.5C 159.5,159.167 159.5,159.833 159.5,160.5C 159.66,162.153 160.326,163.486 161.5,164.5C 161.5,164.833 161.5,165.167 161.5,165.5C 161.833,168.167 162.167,170.833 162.5,173.5C 159.997,168.014 157.664,162.348 155.5,156.5C 155,156.167 154.5,155.833 154,155.5C 152.826,156.544 151.659,157.544 150.5,158.5C 150.53,157.503 150.03,156.836 149,156.5C 131.677,157.82 114.344,157.82 97,156.5C 95.167,156.519 93.667,157.185 92.5,158.5C 92.4142,157.504 92.7476,156.671 93.5,156C 92.552,155.517 91.552,155.351 90.5,155.5C 90.1667,155.5 89.8333,155.5 89.5,155.5C 87.4855,154.076 85.1522,153.41 82.5,153.5C 82.1667,153.5 81.8333,153.5 81.5,153.5C 80.4937,152.604 80.4937,151.938 81.5,151.5 Z"/></g>
<g><path style="opacity:0.008" fill="#e2e2e2" d="M 180.5,154.5 C 181.167,155.5 181.833,156.5 182.5,157.5C 180.04,157.301 177.707,156.635 175.5,155.5C 177.045,154.548 178.712,154.215 180.5,154.5 Z"/></g>
<g><path style="opacity:1" fill="#f4f4f4" d="M 163.5,155.5 C 168.767,156.816 174.1,157.816 179.5,158.5C 179.483,160.565 179.15,162.565 178.5,164.5C 176.801,164.66 175.134,164.494 173.5,164C 169.266,161.698 165.266,159.031 161.5,156C 162.094,155.536 162.761,155.369 163.5,155.5 Z"/></g>
<g><path style="opacity:0.173" fill="#c0bec2" d="M 90.5,155.5 C 91.552,155.351 92.552,155.517 93.5,156C 92.7476,156.671 92.4142,157.504 92.5,158.5C 91.5,159.167 90.5,159.833 89.5,160.5C 89.5106,158.983 90.1772,157.816 91.5,157C 90.944,156.617 90.6107,156.117 90.5,155.5 Z"/></g>
<g><path style="opacity:0.999" fill="#fafbfa" d="M 146.5,162.5 C 144.5,164.833 142.5,167.167 140.5,169.5C 126.855,180.548 111.189,185.715 93.5,185C 92.6266,183.955 91.6266,183.122 90.5,182.5C 89.6001,174.171 92.2668,167.004 98.5,161C 104.547,161.91 110.713,162.41 117,162.5C 126.851,161.697 136.684,160.697 146.5,159.5C 146.5,160.5 146.5,161.5 146.5,162.5 Z"/></g>
<g><path style="opacity:1" fill="#1e4441" d="M 150.5,158.5 C 150.262,160.404 149.262,161.738 147.5,162.5C 147.738,160.596 148.738,159.262 150.5,158.5 Z"/></g>
<g><path style="opacity:1" fill="#cbcbcb" d="M 150.5,158.5 C 148.738,159.262 147.738,160.596 147.5,162.5C 147.167,162.5 146.833,162.5 146.5,162.5C 146.5,161.5 146.5,160.5 146.5,159.5C 136.684,160.697 126.851,161.697 117,162.5C 110.713,162.41 104.547,161.91 98.5,161C 92.2668,167.004 89.6001,174.171 90.5,182.5C 87.2654,180.669 85.5987,177.836 85.5,174C 86.9125,168.347 89.2458,163.18 92.5,158.5C 93.667,157.185 95.167,156.519 97,156.5C 114.344,157.82 131.677,157.82 149,156.5C 150.03,156.836 150.53,157.503 150.5,158.5 Z"/></g>
<g><path style="opacity:0.102" fill="#bcbfbc" d="M 159.5,160.5 C 160.71,160.932 161.71,161.599 162.5,162.5C 161.662,162.842 161.328,163.508 161.5,164.5C 160.326,163.486 159.66,162.153 159.5,160.5 Z"/></g>
<g><path style="opacity:1" fill="#cbcbcb" d="M 157.5,154.5 C 159.735,154.205 161.735,154.539 163.5,155.5C 162.761,155.369 162.094,155.536 161.5,156C 165.266,159.031 169.266,161.698 173.5,164C 175.134,164.494 176.801,164.66 178.5,164.5C 178.029,165.901 177.362,167.234 176.5,168.5C 170.641,165.407 164.975,162.074 159.5,158.5C 158.326,157.486 157.66,156.153 157.5,154.5 Z"/></g>
<g><path style="opacity:1" fill="#99faf9" d="M 162.5,173.5 C 163.08,178.177 164.413,182.51 166.5,186.5C 166.704,189.518 167.037,192.518 167.5,195.5C 168.662,207.496 163.329,214.329 151.5,216C 140.86,217.316 130.193,217.65 119.5,217C 118.5,216.5 117.5,216 116.5,215.5C 114.935,209.129 112.602,203.129 109.5,197.5C 110.601,196.402 111.934,196.235 113.5,197C 117.553,201.297 122.553,203.13 128.5,202.5C 132.056,202.358 135.39,201.524 138.5,200C 138.167,199.667 137.833,199.333 137.5,199C 140.796,193.894 143.629,188.727 146,183.5C 142.305,188.362 138.805,193.362 135.5,198.5C 131.722,200.255 127.722,200.922 123.5,200.5C 124.739,194.015 126.572,187.682 129,181.5C 134.958,177.211 140.624,172.544 146,167.5C 146.608,165.846 147.108,164.179 147.5,162.5C 149.262,161.738 150.262,160.404 150.5,158.5C 151.659,157.544 152.826,156.544 154,155.5C 154.5,155.833 155,156.167 155.5,156.5C 157.664,162.348 159.997,168.014 162.5,173.5 Z"/></g>
<g><path style="opacity:0.575" fill="#757575" d="M 84.5,169.5 C 84.5,172.833 84.5,176.167 84.5,179.5C 82.293,176.28 82.293,172.947 84.5,169.5 Z"/></g>
<g><path style="opacity:1" fill="#84c5b9" d="M 146.5,162.5 C 146.833,162.5 147.167,162.5 147.5,162.5C 147.108,164.179 146.608,165.846 146,167.5C 140.624,172.544 134.958,177.211 129,181.5C 126.572,187.682 124.739,194.015 123.5,200.5C 121.5,200.5 120.5,199.5 120.5,197.5C 121.536,191.66 123.202,185.993 125.5,180.5C 131.385,177.935 136.385,174.269 140.5,169.5C 142.5,167.167 144.5,164.833 146.5,162.5 Z"/></g>
<g><path style="opacity:0.927" fill="#313e3f" d="M 161.5,165.5 C 164.819,172.796 167.153,180.463 168.5,188.5C 167.732,187.737 167.232,186.737 167,185.5C 166.601,185.728 166.435,186.062 166.5,186.5C 164.413,182.51 163.08,178.177 162.5,173.5C 162.167,170.833 161.833,168.167 161.5,165.5 Z"/></g>
<g><path style="opacity:1" fill="#1a2722" d="M 92.5,158.5 C 89.2458,163.18 86.9125,168.347 85.5,174C 85.5987,177.836 87.2654,180.669 90.5,182.5C 91.6266,183.122 92.6266,183.955 93.5,185C 111.189,185.715 126.855,180.548 140.5,169.5C 136.385,174.269 131.385,177.935 125.5,180.5C 123.202,185.993 121.536,191.66 120.5,197.5C 119.833,197.5 119.167,197.5 118.5,197.5C 119.291,192.503 120.624,187.67 122.5,183C 117.309,184.444 111.976,185.61 106.5,186.5C 106.5,188.167 106.5,189.833 106.5,191.5C 105.833,193.833 105.167,196.167 104.5,198.5C 104.5,194.833 104.5,191.167 104.5,187.5C 99.994,187.852 95.6607,187.185 91.5,185.5C 90.8933,185.624 90.56,185.957 90.5,186.5C 90.1667,186.5 89.8333,186.5 89.5,186.5C 87.4776,184.469 85.8109,182.135 84.5,179.5C 84.5,176.167 84.5,172.833 84.5,169.5C 85.4097,166.008 87.0764,163.008 89.5,160.5C 90.5,159.833 91.5,159.167 92.5,158.5 Z"/></g>
<g><path style="opacity:1" fill="#88c9b7" d="M 118.5,197.5 C 118.565,197.938 118.399,198.272 118,198.5C 114.82,194.328 111.153,193.662 107,196.5C 106.506,194.866 106.34,193.199 106.5,191.5C 106.5,189.833 106.5,188.167 106.5,186.5C 111.976,185.61 117.309,184.444 122.5,183C 120.624,187.67 119.291,192.503 118.5,197.5 Z"/></g>
<g><path style="opacity:1" fill="#89cfbe" d="M 104.5,198.5 C 102.708,198.366 101.042,198.699 99.5,199.5C 99.1667,196.167 98.8333,192.833 98.5,189.5C 96.4086,189.682 94.4086,189.348 92.5,188.5C 91.5108,192.107 91.1774,195.774 91.5,199.5C 90.5151,195.366 90.1818,191.032 90.5,186.5C 90.56,185.957 90.8933,185.624 91.5,185.5C 95.6607,187.185 99.994,187.852 104.5,187.5C 104.5,191.167 104.5,194.833 104.5,198.5 Z"/></g>
<g><path style="opacity:0.439" fill="#959a9a" d="M 82.5,197.5 C 80.5214,195.832 78.188,195.166 75.5,195.5C 77.1448,193.19 79.1448,193.023 81.5,195C 82.2524,195.671 82.5858,196.504 82.5,197.5 Z"/></g>
<g><path style="opacity:0.255" fill="#b0b0b1" d="M 168.5,188.5 C 170.163,190.438 170.829,192.772 170.5,195.5C 169.076,193.485 168.41,191.152 168.5,188.5 Z"/></g>
<g><path style="opacity:0.008" fill="#dbe0e0" d="M 89.5,186.5 C 89.5,190.833 89.5,195.167 89.5,199.5C 87.4727,199.662 85.4727,199.495 83.5,199C 82.944,198.617 82.6107,198.117 82.5,197.5C 84.1172,198.038 85.7839,198.371 87.5,198.5C 87.0834,194.183 87.7501,190.183 89.5,186.5 Z"/></g>
<g><path style="opacity:1" fill="#9cf9f3" d="M 99.5,199.5 C 97.2133,199.724 95.0466,200.391 93,201.5C 91.9701,201.164 91.4701,200.497 91.5,199.5C 91.1774,195.774 91.5108,192.107 92.5,188.5C 94.4086,189.348 96.4086,189.682 98.5,189.5C 98.8333,192.833 99.1667,196.167 99.5,199.5 Z"/></g>
<g><path style="opacity:1" fill="#0f2f31" d="M 128.5,202.5 C 126.833,201.833 125.167,201.167 123.5,200.5C 127.722,200.922 131.722,200.255 135.5,198.5C 138.805,193.362 142.305,188.362 146,183.5C 143.629,188.727 140.796,193.894 137.5,199C 137.833,199.333 138.167,199.667 138.5,200C 135.39,201.524 132.056,202.358 128.5,202.5 Z"/></g>
<g><path style="opacity:0.968" fill="#0c1312" d="M 168.5,188.5 C 168.41,191.152 169.076,193.485 170.5,195.5C 170.5,195.833 170.5,196.167 170.5,196.5C 170.5,200.167 170.5,203.833 170.5,207.5C 169.833,205.5 169.167,203.5 168.5,201.5C 168.795,199.265 168.461,197.265 167.5,195.5C 167.037,192.518 166.704,189.518 166.5,186.5C 166.435,186.062 166.601,185.728 167,185.5C 167.232,186.737 167.732,187.737 168.5,188.5 Z"/></g>
<g><path style="opacity:1" fill="#87ccba" d="M 76.5,198.5 C 77.7671,203.541 79.1005,208.541 80.5,213.5C 86.1233,215.171 91.1233,214.171 95.5,210.5C 99.6034,211.231 103.103,210.231 106,207.5C 106.464,208.094 106.631,208.761 106.5,209.5C 106.517,211.565 106.85,213.565 107.5,215.5C 99.0161,216.493 90.3494,216.826 81.5,216.5C 77.532,215.929 75.3653,213.596 75,209.5C 74.3333,206.5 74.3333,203.5 75,200.5C 75.2784,199.584 75.7784,198.918 76.5,198.5 Z"/></g>
<g><path style="opacity:0.255" fill="#cad1cc" d="M 170.5,196.5 C 171.65,201.316 171.816,206.316 171,211.5C 170.722,212.416 170.222,213.082 169.5,213.5C 169.517,211.435 169.85,209.435 170.5,207.5C 170.5,203.833 170.5,200.167 170.5,196.5 Z"/></g>
<g><path style="opacity:0.102" fill="#d0d6d4" d="M 73.5,198.5 C 72.8379,202.466 72.5045,206.466 72.5,210.5C 71.8418,209.207 71.5085,207.707 71.5,206C 71.4078,203.179 72.0744,200.679 73.5,198.5 Z"/></g>
<g><path style="opacity:1" fill="#9bf8f5" d="M 95.5,210.5 C 91.1233,214.171 86.1233,215.171 80.5,213.5C 79.1005,208.541 77.7671,203.541 76.5,198.5C 76.9169,197.876 77.5836,197.543 78.5,197.5C 80.147,198.278 81.4804,199.444 82.5,201C 85.2263,201.182 87.8929,201.682 90.5,202.5C 91.6772,205.531 93.3438,208.198 95.5,210.5 Z"/></g>
<g><path style="opacity:1" fill="#1e4336" d="M 108.5,199.5 C 108.353,204.214 108.686,208.881 109.5,213.5C 108.662,213.842 108.328,214.508 108.5,215.5C 108.167,215.5 107.833,215.5 107.5,215.5C 106.85,213.565 106.517,211.565 106.5,209.5C 107.167,206.167 107.833,202.833 108.5,199.5 Z"/></g>
<g><path style="opacity:0.553" fill="#a3aaa8" d="M 74.5,215.5 C 76.4044,215.738 77.7377,216.738 78.5,218.5C 76.5956,218.262 75.2623,217.262 74.5,215.5 Z"/></g>
<g><path style="opacity:0.827" fill="#24352d" d="M 168.5,201.5 C 169.167,203.5 169.833,205.5 170.5,207.5C 169.85,209.435 169.517,211.435 169.5,213.5C 167.264,217.294 163.931,219.627 159.5,220.5C 158.791,219.596 157.791,219.263 156.5,219.5C 165.638,217.014 169.638,211.014 168.5,201.5 Z"/></g>
<g><path style="opacity:0.988" fill="#1d2421" d="M 89.5,186.5 C 89.8333,186.5 90.1667,186.5 90.5,186.5C 90.1818,191.032 90.5151,195.366 91.5,199.5C 91.4701,200.497 91.9701,201.164 93,201.5C 95.0466,200.391 97.2133,199.724 99.5,199.5C 101.042,198.699 102.708,198.366 104.5,198.5C 105.167,196.167 105.833,193.833 106.5,191.5C 106.34,193.199 106.506,194.866 107,196.5C 111.153,193.662 114.82,194.328 118,198.5C 118.399,198.272 118.565,197.938 118.5,197.5C 119.167,197.5 119.833,197.5 120.5,197.5C 120.5,199.5 121.5,200.5 123.5,200.5C 125.167,201.167 126.833,201.833 128.5,202.5C 122.553,203.13 117.553,201.297 113.5,197C 111.934,196.235 110.601,196.402 109.5,197.5C 108.662,197.842 108.328,198.508 108.5,199.5C 107.833,202.833 107.167,206.167 106.5,209.5C 106.631,208.761 106.464,208.094 106,207.5C 103.103,210.231 99.6034,211.231 95.5,210.5C 93.3438,208.198 91.6772,205.531 90.5,202.5C 87.8929,201.682 85.2263,201.182 82.5,201C 81.4804,199.444 80.147,198.278 78.5,197.5C 77.5836,197.543 76.9169,197.876 76.5,198.5C 75.7784,198.918 75.2784,199.584 75,200.5C 74.3333,203.5 74.3333,206.5 75,209.5C 75.3653,213.596 77.532,215.929 81.5,216.5C 85.8205,217.166 90.3205,217.499 95,217.5C 99.8861,217.493 104.386,216.826 108.5,215.5C 108.328,214.508 108.662,213.842 109.5,213.5C 110.614,216.449 112.614,218.615 115.5,220C 129.188,220.74 142.855,220.573 156.5,219.5C 157.791,219.263 158.791,219.596 159.5,220.5C 158.048,221.302 156.382,221.802 154.5,222C 142.172,222.9 129.838,223.233 117.5,223C 114.823,222.751 112.49,221.751 110.5,220C 106.179,219.501 101.846,219.334 97.5,219.5C 91.1373,219.593 84.8039,219.26 78.5,218.5C 77.7377,216.738 76.4044,215.738 74.5,215.5C 73.4625,214.07 72.7959,212.403 72.5,210.5C 72.5045,206.466 72.8379,202.466 73.5,198.5C 73.427,196.973 74.0937,195.973 75.5,195.5C 78.188,195.166 80.5214,195.832 82.5,197.5C 82.6107,198.117 82.944,198.617 83.5,199C 85.4727,199.495 87.4727,199.662 89.5,199.5C 89.5,195.167 89.5,190.833 89.5,186.5 Z"/></g>
<g><path style="opacity:1" fill="#5d877e" d="M 107.5,215.5 C 107.833,215.5 108.167,215.5 108.5,215.5C 104.386,216.826 99.8861,217.493 95,217.5C 90.3205,217.499 85.8205,217.166 81.5,216.5C 90.3494,216.826 99.0161,216.493 107.5,215.5 Z"/></g>
<g><path style="opacity:1" fill="#e8b689" d="M 98.5,200.5 C 100.5,200.5 102.5,200.5 104.5,200.5C 105.501,207 102.835,209.5 96.5,208C 92.384,204.321 93.0506,201.821 98.5,200.5 Z"/></g>
<g><path style="opacity:1" fill="#88c9bc" d="M 167.5,195.5 C 168.461,197.265 168.795,199.265 168.5,201.5C 169.638,211.014 165.638,217.014 156.5,219.5C 142.855,220.573 129.188,220.74 115.5,220C 112.614,218.615 110.614,216.449 109.5,213.5C 108.686,208.881 108.353,204.214 108.5,199.5C 108.328,198.508 108.662,197.842 109.5,197.5C 112.602,203.129 114.935,209.129 116.5,215.5C 117.5,216 118.5,216.5 119.5,217C 130.193,217.65 140.86,217.316 151.5,216C 163.329,214.329 168.662,207.496 167.5,195.5 Z"/></g>
<g><path style="opacity:0.016" fill="#f0f5f4" d="M 78.5,218.5 C 84.8039,219.26 91.1373,219.593 97.5,219.5C 95.1903,220.164 92.6903,220.497 90,220.5C 85.8877,220.651 82.0543,219.984 78.5,218.5 Z"/></g>
</svg>
