<?xml version="1.0" encoding="UTF-8"?>
<!DOCTYPE svg PUBLIC "-//W3C//DTD SVG 1.1//EN" "http://www.w3.org/Graphics/SVG/1.1/DTD/svg11.dtd">
<svg xmlns="http://www.w3.org/2000/svg" version="1.1" width="225px" height="225px" style="shape-rendering:geometricPrecision; text-rendering:geometricPrecision; image-rendering:optimizeQuality; fill-rule:evenodd; clip-rule:evenodd" xmlns:xlink="http://www.w3.org/1999/xlink">
<g><path style="opacity:1" fill="#fdfdfd" d="M -0.5,-0.5 C 74.5,-0.5 149.5,-0.5 224.5,-0.5C 224.5,74.5 224.5,149.5 224.5,224.5C 149.5,224.5 74.5,224.5 -0.5,224.5C -0.5,149.5 -0.5,74.5 -0.5,-0.5 Z"/></g>
<g><path style="opacity:1" fill="#251b15" d="M 176.5,145.5 C 175.209,145.263 174.209,145.596 173.5,146.5C 169.997,148.753 166.33,150.753 162.5,152.5C 161.5,152.833 160.833,153.5 160.5,154.5C 159.5,154.5 158.5,154.5 157.5,154.5C 156.432,153.566 155.099,153.232 153.5,153.5C 154.167,154.167 154.833,154.833 155.5,155.5C 153.336,155.721 151.67,156.721 150.5,158.5C 150.53,157.503 150.03,156.836 149,156.5C 147.234,157.233 145.401,157.567 143.5,157.5C 127.143,157.757 110.809,157.424 94.5,156.5C 94.1667,156.5 93.8333,156.5 93.5,156.5C 78.3738,152.942 64.3738,146.609 51.5,137.5C 40.6264,145.386 28.6264,148.219 15.5,146C 3.63023,139.75 -0.869774,129.917 2,116.5C 7.25648,103.786 16.7565,98.1195 30.5,99.5C 25.5762,81.5242 25.4095,63.5242 30,45.5C 40.8982,22.285 59.0649,8.45162 84.5,4C 113.781,-0.125387 140.781,5.87461 165.5,22C 191.03,42.5862 200.697,69.0862 194.5,101.5C 203.862,98.9034 212.029,100.903 219,107.5C 225.754,117.636 224.587,126.802 215.5,135C 204.161,140.841 192.827,140.674 181.5,134.5C 180.616,138.597 178.949,142.263 176.5,145.5 Z"/></g>
<g><path style="opacity:1" fill="#fccb9a" d="M 141.5,12.5 C 181.851,28.19 198.685,57.5233 192,100.5C 190.663,104.507 188.83,108.173 186.5,111.5C 185.992,109.767 185.159,109.434 184,110.5C 183.902,113.522 183.068,116.189 181.5,118.5C 181.232,115.881 181.565,113.381 182.5,111C 177.546,111.818 172.546,112.818 167.5,114C 164.183,114.498 160.85,114.665 157.5,114.5C 151.906,114.178 146.573,112.845 141.5,110.5C 140.692,108.577 140.192,106.577 140,104.5C 139.312,108.068 138.145,111.401 136.5,114.5C 135.298,117.487 135.965,120.154 138.5,122.5C 140.756,128.584 145.089,132.417 151.5,134C 157.681,134.964 163.681,134.464 169.5,132.5C 171.948,133.473 174.615,133.806 177.5,133.5C 177.785,137.038 176.118,138.871 172.5,139C 173.731,140.183 173.731,141.349 172.5,142.5C 171.5,141.167 170.5,141.167 169.5,142.5C 168.376,143.914 167.376,145.414 166.5,147C 153.564,152.441 140.064,154.941 126,154.5C 116.14,153.952 106.307,153.119 96.5,152C 93.0125,149.705 89.3458,149.205 85.5,150.5C 79.2274,147.364 72.8941,144.197 66.5,141C 61.2374,137.119 55.7374,133.619 50,130.5C 45.8728,133.277 41.7061,136.11 37.5,139C 31.3573,141.345 25.0239,142.011 18.5,141C 14.1118,138.477 9.77845,135.977 5.5,133.5C 0.234209,119.109 4.56754,108.942 18.5,103C 25.5297,102.545 32.5297,102.545 39.5,103C 37.4127,102.208 35.5793,101.041 34,99.5C 32.8295,95.4815 31.6628,91.4815 30.5,87.5C 30.1895,75.6681 30.5228,63.6681 31.5,51.5C 35.9975,33.6668 46.6642,21.0001 63.5,13.5C 67.5546,13.8242 71.5546,13.4909 75.5,12.5C 75.2907,11.914 74.9574,11.414 74.5,11C 83.8712,7.97772 93.5379,6.47772 103.5,6.5C 116.318,8.2039 128.985,10.2039 141.5,12.5 Z"/></g>
<g><path style="opacity:1" fill="#ebcaa4" d="M 141.5,12.5 C 128.985,10.2039 116.318,8.2039 103.5,6.5C 93.5379,6.47772 83.8712,7.97772 74.5,11C 74.9574,11.414 75.2907,11.914 75.5,12.5C 71.5546,13.4909 67.5546,13.8242 63.5,13.5C 75.7092,7.52425 88.7092,4.85758 102.5,5.5C 116.191,4.64035 129.191,6.97368 141.5,12.5 Z"/></g>
<g><path style="opacity:1" fill="#c96635" d="M 154.5,42.5 C 155.654,45.4788 156.82,48.4788 158,51.5C 158.812,55.6888 158.645,59.6888 157.5,63.5C 151.8,70.5311 145.133,76.5311 137.5,81.5C 137.167,81.3333 136.833,81.1667 136.5,81C 138.041,79.4207 139.208,77.5873 140,75.5C 140.667,71.5 140.667,67.5 140,63.5C 138.318,70.6924 134.151,76.0257 127.5,79.5C 126.341,76.6517 125.008,73.9851 123.5,71.5C 123.5,69.8333 123.5,68.1667 123.5,66.5C 123.662,64.4727 123.495,62.4727 123,60.5C 122.667,60.8333 122.333,61.1667 122,61.5C 120.974,58.7613 119.474,56.428 117.5,54.5C 106.287,42.198 108.62,33.3646 124.5,28C 133.825,27.2182 142.159,29.8849 149.5,36C 151.79,37.7772 153.457,39.9438 154.5,42.5 Z"/></g>
<g><path style="opacity:1" fill="#7d462a" d="M 117.5,54.5 C 119.474,56.428 120.974,58.7613 122,61.5C 122.333,61.1667 122.667,60.8333 123,60.5C 123.495,62.4727 123.662,64.4727 123.5,66.5C 122.833,65.5 122.167,64.5 121.5,63.5C 119.796,60.7442 118.463,57.7442 117.5,54.5 Z"/></g>
<g><path style="opacity:1" fill="#e4c4a2" d="M 31.5,51.5 C 30.5228,63.6681 30.1895,75.6681 30.5,87.5C 28.6046,78.2608 28.1046,68.9275 29,59.5C 29.0984,56.4776 29.9318,53.8109 31.5,51.5 Z"/></g>
<g><path style="opacity:1" fill="#250702" d="M 121.5,63.5 C 122.167,64.5 122.833,65.5 123.5,66.5C 123.5,68.1667 123.5,69.8333 123.5,71.5C 123.693,75.5662 123.36,79.5662 122.5,83.5C 122.229,85.3117 121.562,86.9783 120.5,88.5C 119.893,88.3764 119.56,88.0431 119.5,87.5C 122.701,79.7597 123.367,71.7597 121.5,63.5 Z"/></g>
<g><path style="opacity:1" fill="#281006" d="M 154.5,42.5 C 161.101,50.6275 162.267,59.6275 158,69.5C 153.091,78.7086 145.591,84.7086 135.5,87.5C 135.062,87.5654 134.728,87.3988 134.5,87C 135.416,86.7216 136.082,86.2216 136.5,85.5C 147.613,82.0548 154.613,74.7215 157.5,63.5C 158.645,59.6888 158.812,55.6888 158,51.5C 156.82,48.4788 155.654,45.4788 154.5,42.5 Z"/></g>
<g><path style="opacity:1" fill="#89310f" d="M 157.5,63.5 C 154.613,74.7215 147.613,82.0548 136.5,85.5C 134.406,86.2422 132.239,86.9089 130,87.5C 128.833,87.1667 127.667,86.8333 126.5,86.5C 127.981,85.5197 129.315,84.353 130.5,83C 128.544,83.2218 126.71,84.0552 125,85.5C 124.292,84.6195 123.458,83.9528 122.5,83.5C 123.36,79.5662 123.693,75.5662 123.5,71.5C 125.008,73.9851 126.341,76.6517 127.5,79.5C 134.151,76.0257 138.318,70.6924 140,63.5C 140.667,67.5 140.667,71.5 140,75.5C 139.208,77.5873 138.041,79.4207 136.5,81C 136.833,81.1667 137.167,81.3333 137.5,81.5C 145.133,76.5311 151.8,70.5311 157.5,63.5 Z"/></g>
<g><path style="opacity:1" fill="#522210" d="M 136.5,85.5 C 136.082,86.2216 135.416,86.7216 134.5,87C 134.728,87.3988 135.062,87.5654 135.5,87.5C 130.059,89.534 124.392,89.8673 118.5,88.5C 118.624,87.8933 118.957,87.56 119.5,87.5C 119.56,88.0431 119.893,88.3764 120.5,88.5C 121.562,86.9783 122.229,85.3117 122.5,83.5C 123.458,83.9528 124.292,84.6195 125,85.5C 126.71,84.0552 128.544,83.2218 130.5,83C 129.315,84.353 127.981,85.5197 126.5,86.5C 127.667,86.8333 128.833,87.1667 130,87.5C 132.239,86.9089 134.406,86.2422 136.5,85.5 Z"/></g>
<g><path style="opacity:1" fill="#a97d4f" d="M 75.5,103.5 C 74.8333,103.833 74.1667,104.167 73.5,104.5C 72.8106,103.226 71.9772,103.226 71,104.5C 71.61,101.39 71.2767,98.3903 70,95.5C 71.5963,98.3695 73.4297,101.036 75.5,103.5 Z"/></g>
<g><path style="opacity:1" fill="#f9f9f7" d="M 77.5,106.5 C 83.9252,113.718 91.9252,118.384 101.5,120.5C 106.214,120.173 110.88,120.507 115.5,121.5C 116.671,123.169 118.004,124.669 119.5,126C 119.011,127.138 118.678,128.305 118.5,129.5C 104.529,139.142 90.8623,138.808 77.5,128.5C 77.2624,126.596 76.2624,125.262 74.5,124.5C 72.1751,119.234 72.0085,113.901 74,108.5C 74.8159,107.177 75.9826,106.511 77.5,106.5 Z"/></g>
<g><path style="opacity:1" fill="#5e4931" d="M 157.5,114.5 C 157.5,114.833 157.5,115.167 157.5,115.5C 151.501,115.584 145.835,114.25 140.5,111.5C 139.148,112.524 137.815,113.524 136.5,114.5C 138.145,111.401 139.312,108.068 140,104.5C 140.192,106.577 140.692,108.577 141.5,110.5C 146.573,112.845 151.906,114.178 157.5,114.5 Z"/></g>
<g><path style="opacity:1" fill="#5a3419" d="M 26.5,115.5 C 22.2473,114.807 18.5807,115.807 15.5,118.5C 18.0153,113.288 21.682,112.288 26.5,115.5 Z"/></g>
<g><path style="opacity:1" fill="#23140b" d="M 75.5,103.5 C 76.1667,104.5 76.8333,105.5 77.5,106.5C 75.9826,106.511 74.8159,107.177 74,108.5C 72.0085,113.901 72.1751,119.234 74.5,124.5C 73.0337,123.653 72.2004,122.32 72,120.5C 70.7561,116.221 70.4228,111.888 71,107.5C 71.3768,106.058 72.2101,105.058 73.5,104.5C 74.1667,104.167 74.8333,103.833 75.5,103.5 Z"/></g>
<g><path style="opacity:1" fill="#d8a069" d="M 206.5,121.5 C 206.631,122.239 206.464,122.906 206,123.5C 204.74,119.906 202.407,117.239 199,115.5C 193.476,117.551 188.643,120.551 184.5,124.5C 184.343,123.127 184.51,121.793 185,120.5C 186.376,119.295 187.542,117.962 188.5,116.5C 190.027,116.573 191.027,115.906 191.5,114.5C 195.87,112.843 200.036,113.176 204,115.5C 204.845,117.611 205.678,119.611 206.5,121.5 Z"/></g>
<g><path style="opacity:1" fill="#4a382a" d="M 77.5,106.5 C 85.1155,112.974 93.7822,117.308 103.5,119.5C 102.508,119.328 101.842,119.662 101.5,120.5C 91.9252,118.384 83.9252,113.718 77.5,106.5 Z"/></g>
<g><path style="opacity:1" fill="#f6f7f5" d="M 157.5,115.5 C 158.828,119.254 161.494,120.421 165.5,119C 166.743,117.846 167.743,116.512 168.5,115C 171.919,114.479 175.252,113.645 178.5,112.5C 179.568,117.898 178.568,122.898 175.5,127.5C 161.525,136.807 149.192,135.14 138.5,122.5C 138.142,119.733 137.475,117.067 136.5,114.5C 137.815,113.524 139.148,112.524 140.5,111.5C 145.835,114.25 151.501,115.584 157.5,115.5 Z"/></g>
<g><path style="opacity:1" fill="#1a120f" d="M 181.5,118.5 C 180.231,122.054 178.231,125.054 175.5,127.5C 178.568,122.898 179.568,117.898 178.5,112.5C 175.252,113.645 171.919,114.479 168.5,115C 167.743,116.512 166.743,117.846 165.5,119C 161.494,120.421 158.828,119.254 157.5,115.5C 157.5,115.167 157.5,114.833 157.5,114.5C 160.85,114.665 164.183,114.498 167.5,114C 172.546,112.818 177.546,111.818 182.5,111C 181.565,113.381 181.232,115.881 181.5,118.5 Z"/></g>
<g><path style="opacity:1" fill="#855331" d="M 26.5,115.5 C 28.674,115.75 30.3406,116.75 31.5,118.5C 29.0107,118.759 27.344,117.759 26.5,115.5 Z"/></g>
<g><path style="opacity:1" fill="#e99f58" d="M 26.5,115.5 C 27.344,117.759 29.0107,118.759 31.5,118.5C 32.1667,119.5 32.8333,120.5 33.5,121.5C 33.2172,122.289 32.7172,122.956 32,123.5C 28.98,121.8 25.98,120.134 23,118.5C 20.2096,119.476 17.7096,120.809 15.5,122.5C 15.5,121.167 15.5,119.833 15.5,118.5C 18.5807,115.807 22.2473,114.807 26.5,115.5 Z"/></g>
<g><path style="opacity:1" fill="#20170e" d="M 118.5,129.5 C 118.678,128.305 119.011,127.138 119.5,126C 118.004,124.669 116.671,123.169 115.5,121.5C 110.88,120.507 106.214,120.173 101.5,120.5C 101.842,119.662 102.508,119.328 103.5,119.5C 110.07,119.713 116.403,118.879 122.5,117C 121.712,120.076 121.212,123.242 121,126.5C 120.623,127.942 119.79,128.942 118.5,129.5 Z"/></g>
<g><path style="opacity:1" fill="#6d5540" d="M 136.5,114.5 C 137.475,117.067 138.142,119.733 138.5,122.5C 135.965,120.154 135.298,117.487 136.5,114.5 Z"/></g>
<g><path style="opacity:1" fill="#fbca97" d="M 219.5,125.5 C 211.025,134.548 200.691,137.048 188.5,133C 185.179,132.03 183.513,129.863 183.5,126.5C 183.328,125.508 183.662,124.842 184.5,124.5C 188.643,120.551 193.476,117.551 199,115.5C 202.407,117.239 204.74,119.906 206,123.5C 206.464,122.906 206.631,122.239 206.5,121.5C 207.155,117.645 205.821,114.812 202.5,113C 199.5,112.333 196.5,112.333 193.5,113C 192.584,113.278 191.918,113.778 191.5,114.5C 189.973,114.427 188.973,115.094 188.5,116.5C 187.761,116.631 187.094,116.464 186.5,116C 188.389,111.71 190.889,107.877 194,104.5C 200.199,103.13 206.365,103.297 212.5,105C 220.217,109.935 222.55,116.769 219.5,125.5 Z"/></g>
<g><path style="opacity:1" fill="#4c230e" d="M 191.5,114.5 C 191.027,115.906 190.027,116.573 188.5,116.5C 188.973,115.094 189.973,114.427 191.5,114.5 Z"/></g>
<g><path style="opacity:1" fill="#5a2a0f" d="M 206.5,121.5 C 205.678,119.611 204.845,117.611 204,115.5C 200.036,113.176 195.87,112.843 191.5,114.5C 191.918,113.778 192.584,113.278 193.5,113C 196.5,112.333 199.5,112.333 202.5,113C 205.821,114.812 207.155,117.645 206.5,121.5 Z"/></g>
<g><path style="opacity:1" fill="#512b15" d="M 31.5,118.5 C 35.8422,120.328 39.5088,123.161 42.5,127C 39.1823,126.183 35.849,126.349 32.5,127.5C 34.0261,125.87 36.0261,125.037 38.5,125C 37.2107,123.198 35.5441,122.031 33.5,121.5C 32.8333,120.5 32.1667,119.5 31.5,118.5 Z"/></g>
<g><path style="opacity:1" fill="#3f3428" d="M 74.5,124.5 C 76.2624,125.262 77.2624,126.596 77.5,128.5C 75.7376,127.738 74.7376,126.404 74.5,124.5 Z"/></g>
<g><path style="opacity:1" fill="#835c34" d="M 15.5,118.5 C 15.5,119.833 15.5,121.167 15.5,122.5C 15.6621,124.527 15.4955,126.527 15,128.5C 12.9557,125.004 13.1224,121.67 15.5,118.5 Z"/></g>
<g><path style="opacity:1" fill="#563519" d="M 32.5,127.5 C 32.6602,129.199 32.4935,130.866 32,132.5C 29.9353,130.549 30.102,128.882 32.5,127.5 Z"/></g>
<g><path style="opacity:1" fill="#412f1e" d="M 138.5,122.5 C 149.192,135.14 161.525,136.807 175.5,127.5C 174.155,129.836 172.155,131.503 169.5,132.5C 163.681,134.464 157.681,134.964 151.5,134C 145.089,132.417 140.756,128.584 138.5,122.5 Z"/></g>
<g><path style="opacity:1" fill="#d19a65" d="M 219.5,125.5 C 215.84,133.922 209.34,137.922 200,137.5C 194.245,137.583 188.745,136.416 183.5,134C 182.186,131.395 182.186,128.895 183.5,126.5C 183.513,129.863 185.179,132.03 188.5,133C 200.691,137.048 211.025,134.548 219.5,125.5 Z"/></g>
<g><path style="opacity:1" fill="#493324" d="M 77.5,128.5 C 90.8623,138.808 104.529,139.142 118.5,129.5C 116.276,132.624 113.276,134.791 109.5,136C 102.897,137.274 96.2305,137.774 89.5,137.5C 89.1583,136.662 88.4916,136.328 87.5,136.5C 83.437,134.795 80.1037,132.128 77.5,128.5 Z"/></g>
<g><path style="opacity:1" fill="#e29d58" d="M 87.5,136.5 C 88.4916,136.328 89.1583,136.662 89.5,137.5C 90.6085,138.29 91.9419,138.79 93.5,139C 87.4897,140.928 81.4897,140.928 75.5,139C 74.1667,138.333 74.1667,137.667 75.5,137C 79.4862,136.501 83.4862,136.334 87.5,136.5 Z"/></g>
<g><path style="opacity:1" fill="#d99859" d="M 85.5,150.5 C 84.5084,150.328 83.8417,150.662 83.5,151.5C 77.8578,150.182 72.5245,148.015 67.5,145C 62.4098,141.705 57.2432,138.538 52,135.5C 43.5203,141.123 34.1869,144.457 24,145.5C 15.2788,145.254 9.1121,141.254 5.5,133.5C 9.77845,135.977 14.1118,138.477 18.5,141C 25.0239,142.011 31.3573,141.345 37.5,139C 41.7061,136.11 45.8728,133.277 50,130.5C 55.7374,133.619 61.2374,137.119 66.5,141C 72.8941,144.197 79.2274,147.364 85.5,150.5 Z"/></g>
<g><path style="opacity:1" fill="#4f331b" d="M 127.5,143.5 C 130.09,143.396 132.423,144.063 134.5,145.5C 137.248,143.709 140.248,143.209 143.5,144C 140.068,144.116 137.068,145.283 134.5,147.5C 132.668,146.752 131.001,145.752 129.5,144.5C 127.114,145.988 126.448,145.655 127.5,143.5 Z"/></g>
<g><path style="opacity:1" fill="#d8dada" d="M 173.5,146.5 C 176.451,147.809 177.784,150.143 177.5,153.5C 174.843,153.83 172.176,154.163 169.5,154.5C 166.845,154.56 164.511,153.893 162.5,152.5C 166.33,150.753 169.997,148.753 173.5,146.5 Z"/></g>
<g><path style="opacity:1" fill="#eac8a2" d="M 186.5,111.5 C 182.642,120.909 179.475,130.575 177,140.5C 170.333,147.08 162.5,151.414 153.5,153.5C 151.436,153.687 149.436,154.187 147.5,155C 131.833,155.667 116.167,155.667 100.5,155C 94.6986,154.237 89.032,153.07 83.5,151.5C 83.8417,150.662 84.5084,150.328 85.5,150.5C 89.3458,149.205 93.0125,149.705 96.5,152C 106.307,153.119 116.14,153.952 126,154.5C 140.064,154.941 153.564,152.441 166.5,147C 167.376,145.414 168.376,143.914 169.5,142.5C 170.5,141.167 171.5,141.167 172.5,142.5C 173.731,141.349 173.731,140.183 172.5,139C 176.118,138.871 177.785,137.038 177.5,133.5C 174.615,133.806 171.948,133.473 169.5,132.5C 172.155,131.503 174.155,129.836 175.5,127.5C 178.231,125.054 180.231,122.054 181.5,118.5C 183.068,116.189 183.902,113.522 184,110.5C 185.159,109.434 185.992,109.767 186.5,111.5 Z"/></g>
<g><path style="opacity:1" fill="#8acdc1" d="M 155.5,155.5 C 155.557,156.609 155.89,157.609 156.5,158.5C 153.855,159.491 151.522,160.991 149.5,163C 143.315,169.849 136.482,176.016 129,181.5C 126.572,187.682 124.739,194.015 123.5,200.5C 121.11,200.315 120.11,198.982 120.5,196.5C 121.768,191.666 123.101,186.833 124.5,182C 128.47,179.344 132.47,176.677 136.5,174C 138.041,172.629 139.375,171.129 140.5,169.5C 143.5,168.5 145.5,166.5 146.5,163.5C 148.587,162.415 149.92,160.749 150.5,158.5C 151.67,156.721 153.336,155.721 155.5,155.5 Z"/></g>
<g><path style="opacity:1" fill="#171f1c" d="M 173.5,146.5 C 174.209,145.596 175.209,145.263 176.5,145.5C 178.33,147.826 179.663,150.493 180.5,153.5C 174.415,155.615 175.082,156.949 182.5,157.5C 181.629,162.445 179.963,167.111 177.5,171.5C 171.533,168.031 165.7,164.364 160,160.5C 162.961,170.057 165.961,179.724 169,189.5C 170.907,197.515 170.907,205.515 169,213.5C 164.356,218.613 158.522,221.446 151.5,222C 145.667,222.167 139.833,222.333 134,222.5C 116.716,220.169 99.2165,219.003 81.5,219C 77.9798,218.496 75.4798,216.663 74,213.5C 72.5236,208.924 72.1902,204.257 73,199.5C 76.1231,193.023 79.6231,192.856 83.5,199C 85.4727,199.495 87.4727,199.662 89.5,199.5C 89.6659,194.489 89.4993,189.489 89,184.5C 82.5193,178.459 81.8526,171.792 87,164.5C 88.9461,161.58 91.1128,158.913 93.5,156.5C 93.8333,156.5 94.1667,156.5 94.5,156.5C 90.1995,161.432 87.1995,167.099 85.5,173.5C 85.5136,178.506 87.847,181.839 92.5,183.5C 103.156,185.572 113.49,184.406 123.5,180C 129.558,176.979 135.224,173.479 140.5,169.5C 139.375,171.129 138.041,172.629 136.5,174C 132.47,176.677 128.47,179.344 124.5,182C 123.101,186.833 121.768,191.666 120.5,196.5C 120.11,198.982 121.11,200.315 123.5,200.5C 127.722,200.922 131.722,200.255 135.5,198.5C 138.805,193.362 142.305,188.362 146,183.5C 142.948,189.432 140.115,195.266 137.5,201C 132.225,202.359 126.891,202.692 121.5,202C 118.193,201.347 115.527,199.681 113.5,197C 111.934,196.235 110.601,196.402 109.5,197.5C 108.662,197.842 108.328,198.508 108.5,199.5C 107.833,202.833 107.167,206.167 106.5,209.5C 105.947,207.343 104.947,207.51 103.5,210C 100.854,210.497 98.1873,210.664 95.5,210.5C 93.3438,208.198 91.6772,205.531 90.5,202.5C 87.8929,201.682 85.2263,201.182 82.5,201C 81.4804,199.444 80.147,198.278 78.5,197.5C 77.5836,197.543 76.9169,197.876 76.5,198.5C 73.7557,204.032 74.089,209.532 77.5,215C 79.0249,216.009 80.6916,216.509 82.5,216.5C 86.6533,217.166 90.9866,217.499 95.5,217.5C 100.222,217.492 104.555,216.825 108.5,215.5C 108.328,214.508 108.662,213.842 109.5,213.5C 110.614,216.449 112.614,218.615 115.5,220C 129.214,220.906 142.881,220.573 156.5,219C 165.352,216.987 169.352,211.487 168.5,202.5C 168.497,199.975 168.163,197.641 167.5,195.5C 165.226,182.735 161.56,170.402 156.5,158.5C 155.89,157.609 155.557,156.609 155.5,155.5C 154.833,154.833 154.167,154.167 153.5,153.5C 155.099,153.232 156.432,153.566 157.5,154.5C 157.848,157.019 159.181,158.853 161.5,160C 166.5,162.833 171.5,165.667 176.5,168.5C 177.362,167.234 178.029,165.901 178.5,164.5C 179.15,162.565 179.483,160.565 179.5,158.5C 174.1,157.816 168.767,156.816 163.5,155.5C 162.791,154.596 161.791,154.263 160.5,154.5C 160.833,153.5 161.5,152.833 162.5,152.5C 164.511,153.893 166.845,154.56 169.5,154.5C 172.176,154.163 174.843,153.83 177.5,153.5C 177.784,150.143 176.451,147.809 173.5,146.5 Z"/></g>
<g><path style="opacity:1" fill="#9cf9f3" d="M 99.5,199.5 C 97.2133,199.724 95.0466,200.391 93,201.5C 91.9701,201.164 91.4701,200.497 91.5,199.5C 91.1774,195.774 91.5108,192.107 92.5,188.5C 94.4086,189.348 96.4086,189.682 98.5,189.5C 98.8333,192.833 99.1667,196.167 99.5,199.5 Z"/></g>
<g><path style="opacity:1" fill="#8bcfbf" d="M 99.5,199.5 C 99.1667,196.167 98.8333,192.833 98.5,189.5C 96.4086,189.682 94.4086,189.348 92.5,188.5C 91.5108,192.107 91.1774,195.774 91.5,199.5C 90.1876,194.985 90.1876,190.318 91.5,185.5C 95.6607,187.185 99.994,187.852 104.5,187.5C 104.5,191.167 104.5,194.833 104.5,198.5C 102.708,198.366 101.042,198.699 99.5,199.5 Z"/></g>
<g><path style="opacity:1" fill="#88c9b7" d="M 120.5,182.5 C 121.239,182.369 121.906,182.536 122.5,183C 120.618,188.025 119.118,193.192 118,198.5C 114.82,194.328 111.153,193.662 107,196.5C 106.502,193.183 106.335,189.85 106.5,186.5C 111.54,186.15 116.206,184.816 120.5,182.5 Z"/></g>
<g><path style="opacity:1" fill="#99fbf9" d="M 156.5,158.5 C 161.56,170.402 165.226,182.735 167.5,195.5C 168.662,207.496 163.329,214.329 151.5,216C 140.86,217.316 130.193,217.65 119.5,217C 118.5,216.5 117.5,216 116.5,215.5C 114.935,209.129 112.602,203.129 109.5,197.5C 110.601,196.402 111.934,196.235 113.5,197C 115.527,199.681 118.193,201.347 121.5,202C 126.891,202.692 132.225,202.359 137.5,201C 140.115,195.266 142.948,189.432 146,183.5C 142.305,188.362 138.805,193.362 135.5,198.5C 131.722,200.255 127.722,200.922 123.5,200.5C 124.739,194.015 126.572,187.682 129,181.5C 136.482,176.016 143.315,169.849 149.5,163C 151.522,160.991 153.855,159.491 156.5,158.5 Z"/></g>
<g><path style="opacity:1" fill="#415f5b" d="M 146.5,163.5 C 145.5,166.5 143.5,168.5 140.5,169.5C 142.167,167.167 144.167,165.167 146.5,163.5 Z"/></g>
<g><path style="opacity:1" fill="#cacaca" d="M 94.5,156.5 C 110.809,157.424 127.143,157.757 143.5,157.5C 143.423,158.75 142.756,159.583 141.5,160C 128.016,162.938 114.516,163.105 101,160.5C 97.3457,162.773 94.3457,165.773 92,169.5C 91.7127,174.39 91.8793,179.056 92.5,183.5C 87.847,181.839 85.5136,178.506 85.5,173.5C 87.1995,167.099 90.1995,161.432 94.5,156.5 Z"/></g>
<g><path style="opacity:1" fill="#cbcbcb" d="M 157.5,154.5 C 158.5,154.5 159.5,154.5 160.5,154.5C 161.791,154.263 162.791,154.596 163.5,155.5C 162.761,155.369 162.094,155.536 161.5,156C 165.266,159.031 169.266,161.698 173.5,164C 175.134,164.494 176.801,164.66 178.5,164.5C 178.029,165.901 177.362,167.234 176.5,168.5C 171.5,165.667 166.5,162.833 161.5,160C 159.181,158.853 157.848,157.019 157.5,154.5 Z"/></g>
<g><path style="opacity:1" fill="#fafafa" d="M 150.5,158.5 C 148.413,159.585 147.08,161.251 146.5,163.5C 144.167,165.167 142.167,167.167 140.5,169.5C 135.224,173.479 129.558,176.979 123.5,180C 113.49,184.406 103.156,185.572 92.5,183.5C 91.8793,179.056 91.7127,174.39 92,169.5C 94.3457,165.773 97.3457,162.773 101,160.5C 114.516,163.105 128.016,162.938 141.5,160C 142.756,159.583 143.423,158.75 143.5,157.5C 145.401,157.567 147.234,157.233 149,156.5C 150.03,156.836 150.53,157.503 150.5,158.5 Z"/></g>
<g><path style="opacity:1" fill="#214341" d="M 150.5,158.5 C 149.92,160.749 148.587,162.415 146.5,163.5C 147.08,161.251 148.413,159.585 150.5,158.5 Z"/></g>
<g><path style="opacity:1" fill="#f4f4f4" d="M 163.5,155.5 C 168.767,156.816 174.1,157.816 179.5,158.5C 179.483,160.565 179.15,162.565 178.5,164.5C 176.801,164.66 175.134,164.494 173.5,164C 169.266,161.698 165.266,159.031 161.5,156C 162.094,155.536 162.761,155.369 163.5,155.5 Z"/></g>
<g><path style="opacity:1" fill="#e9b98d" d="M 98.5,200.5 C 100.5,200.5 102.5,200.5 104.5,200.5C 105.501,207 102.835,209.5 96.5,208C 92.384,204.321 93.0506,201.821 98.5,200.5 Z"/></g>
<g><path style="opacity:1" fill="#1e4336" d="M 108.5,199.5 C 108.353,204.214 108.686,208.881 109.5,213.5C 108.662,213.842 108.328,214.508 108.5,215.5C 108.167,215.5 107.833,215.5 107.5,215.5C 106.85,213.565 106.517,211.565 106.5,209.5C 107.167,206.167 107.833,202.833 108.5,199.5 Z"/></g>
<g><path style="opacity:1" fill="#9af6f0" d="M 95.5,210.5 C 91.1233,214.171 86.1233,215.171 80.5,213.5C 79.1005,208.541 77.7671,203.541 76.5,198.5C 76.9169,197.876 77.5836,197.543 78.5,197.5C 80.147,198.278 81.4804,199.444 82.5,201C 85.2263,201.182 87.8929,201.682 90.5,202.5C 91.6772,205.531 93.3438,208.198 95.5,210.5 Z"/></g>
<g><path style="opacity:1" fill="#88cdbb" d="M 76.5,198.5 C 77.7671,203.541 79.1005,208.541 80.5,213.5C 86.1233,215.171 91.1233,214.171 95.5,210.5C 98.1873,210.664 100.854,210.497 103.5,210C 104.947,207.51 105.947,207.343 106.5,209.5C 106.517,211.565 106.85,213.565 107.5,215.5C 99.3501,216.493 91.0168,216.826 82.5,216.5C 80.6916,216.509 79.0249,216.009 77.5,215C 74.089,209.532 73.7557,204.032 76.5,198.5 Z"/></g>
<g><path style="opacity:1" fill="#5f8a80" d="M 107.5,215.5 C 107.833,215.5 108.167,215.5 108.5,215.5C 104.555,216.825 100.222,217.492 95.5,217.5C 90.9866,217.499 86.6533,217.166 82.5,216.5C 91.0168,216.826 99.3501,216.493 107.5,215.5 Z"/></g>
<g><path style="opacity:1" fill="#82cbbe" d="M 167.5,195.5 C 168.163,197.641 168.497,199.975 168.5,202.5C 169.352,211.487 165.352,216.987 156.5,219C 142.881,220.573 129.214,220.906 115.5,220C 112.614,218.615 110.614,216.449 109.5,213.5C 108.686,208.881 108.353,204.214 108.5,199.5C 108.328,198.508 108.662,197.842 109.5,197.5C 112.602,203.129 114.935,209.129 116.5,215.5C 117.5,216 118.5,216.5 119.5,217C 130.193,217.65 140.86,217.316 151.5,216C 163.329,214.329 168.662,207.496 167.5,195.5 Z"/></g>
</svg>
